<svg width="50" height="29" viewBox="0 0 50 29" fill="none" xmlns="http://www.w3.org/2000/svg">
<path fill-rule="evenodd" clip-rule="evenodd" d="M48.5661 0C48.8484 0 49.0824 0.207499 49.0824 0.463193V28.2428C49.0824 28.4945 48.8484 28.7034 48.5661 28.7034H41.9156C41.6304 28.7034 41.3993 28.4945 41.3993 28.2428V0.463193C41.3993 0.207499 41.6304 0 41.9156 0H48.5661ZM19.7087 0C24.7255 0 29.9704 0.210178 32.5564 2.5797C35.1013 4.91166 35.3758 9.55394 35.3862 14.0621L35.3865 28.2428C35.3865 28.4945 35.1554 28.7034 34.8702 28.7034H28.2226C27.9374 28.7034 27.7049 28.4945 27.7049 28.2428V13.8182C27.6975 11.3001 27.5396 8.71235 26.1208 7.40978C24.8996 6.28928 22.6208 6.03224 20.2514 5.9787H8.19942C7.91568 5.9787 7.68458 6.18753 7.68458 6.43921V28.2428C7.68458 28.4945 7.45056 28.7034 7.16682 28.7034H0.513375C0.229627 28.7034 0 28.4945 0 28.2428V0.463193C0 0.207499 0.229627 0 0.513375 0H19.7087ZM21.1977 11.0631C21.48 11.0631 21.7096 11.2706 21.7096 11.5236V28.2428C21.7096 28.4945 21.48 28.7034 21.1977 28.7034H14.2122C13.9256 28.7034 13.6945 28.4945 13.6945 28.2428V11.5236C13.6945 11.2706 13.9256 11.0631 14.2122 11.0631H21.1977Z" fill="#FF4C0D"/>
</svg>
