<svg aria-hidden="true" style="position: absolute; width: 0; height: 0; overflow: hidden;" version="1.1" xmlns="http://www.w3.org/2000/svg" xmlns:xlink="http://www.w3.org/1999/xlink">
    <defs>
        <symbol id="icon-logo" viewBox="0 0 55 32">
            <path fill="#ff4c0d" style="fill: var(--color1, #ff4c0d)" d="M53.59 0c0.312 0 0.57 0.227 0.57 0.506v30.362c0 0.275-0.258 0.503-0.57 0.503h-7.338c-0.315 0-0.57-0.228-0.57-0.503v-30.362c0-0.279 0.255-0.506 0.57-0.506h7.338zM21.748 0c5.536 0 11.323 0.23 14.177 2.82 2.808 2.549 3.111 7.623 3.123 12.55l0 15.499c0 0.275-0.255 0.503-0.57 0.503h-7.335c-0.315 0-0.571-0.228-0.571-0.503v-15.766c-0.008-2.752-0.182-5.58-1.748-7.004-1.348-1.225-3.862-1.506-6.477-1.564h-13.299c-0.313 0-0.568 0.228-0.568 0.503v23.83c0 0.275-0.258 0.503-0.571 0.503h-7.342c-0.313 0-0.566-0.228-0.566-0.503v-30.362c0-0.279 0.253-0.506 0.566-0.506h21.181zM23.391 12.091c0.311 0 0.565 0.227 0.565 0.503v18.273c0 0.275-0.253 0.503-0.565 0.503h-7.708c-0.316 0-0.571-0.228-0.571-0.503v-18.273c0-0.277 0.255-0.503 0.571-0.503h7.708z"></path>
        </symbol>
    </defs>
</svg>
